<mxfile host="65bd71144e">
    <diagram id="DDnYxPDQdMiz2zHIRIYW" name="第 1 页">
        <mxGraphModel dx="2080" dy="1432" grid="0" gridSize="10" guides="1" tooltips="1" connect="1" arrows="1" fold="1" page="1" pageScale="1" pageWidth="2339" pageHeight="3300" background="#ffffff" math="0" shadow="0">
            <root>
                <mxCell id="0"/>
                <mxCell id="1" parent="0"/>
                <mxCell id="3" value="«interface»&lt;br&gt;&lt;b&gt;OrginDataSource&lt;/b&gt;" style="html=1;fontColor=#262626;labelBorderColor=none;strokeColor=#191919;fillColor=none;" parent="1" vertex="1">
                    <mxGeometry x="1049" y="712" width="110" height="50" as="geometry"/>
                </mxCell>
                <mxCell id="9" value="&lt;p style=&quot;margin: 0px ; margin-top: 4px ; text-align: center&quot;&gt;&lt;b&gt;OrgTree&lt;/b&gt;&lt;/p&gt;&lt;hr size=&quot;1&quot;&gt;&lt;p style=&quot;margin: 0px ; margin-left: 4px&quot;&gt;treeData&lt;/p&gt;&lt;p style=&quot;margin: 0px ; margin-left: 4px&quot;&gt;checkedKey&lt;/p&gt;&lt;p style=&quot;margin: 0px ; margin-left: 4px&quot;&gt;userCache&lt;/p&gt;&lt;hr size=&quot;1&quot;&gt;&lt;p style=&quot;margin: 0px ; margin-left: 4px&quot;&gt;loadData()&lt;/p&gt;&lt;p style=&quot;margin: 0px ; margin-left: 4px&quot;&gt;selectedDepartment()&lt;/p&gt;&lt;p style=&quot;margin: 0px ; margin-left: 4px&quot;&gt;getAllUserByNode()&lt;/p&gt;&lt;p style=&quot;margin: 0px ; margin-left: 4px&quot;&gt;handleSelect()&lt;/p&gt;&lt;p style=&quot;margin: 0px ; margin-left: 4px&quot;&gt;checkUserItem()&lt;/p&gt;&lt;p style=&quot;margin: 0px ; margin-left: 4px&quot;&gt;cacheUser()&lt;/p&gt;&lt;p style=&quot;margin: 0px ; margin-left: 4px&quot;&gt;handleCheckedKey()&lt;/p&gt;&lt;p style=&quot;margin: 0px ; margin-left: 4px&quot;&gt;...&lt;/p&gt;" style="verticalAlign=middle;align=center;overflow=fill;fontSize=12;fontFamily=Helvetica;html=1;fontColor=#262626;labelBorderColor=none;strokeColor=#191919;fillColor=none;" parent="1" vertex="1">
                    <mxGeometry x="684" y="1472" width="160" height="210" as="geometry"/>
                </mxCell>
                <mxCell id="11" value="&lt;p style=&quot;margin: 0px ; margin-top: 4px ; text-align: center&quot;&gt;&lt;b&gt;DepartmentListItem&lt;/b&gt;&lt;/p&gt;&lt;hr size=&quot;1&quot;&gt;&lt;p style=&quot;margin: 0px ; margin-left: 4px&quot;&gt;key&lt;/p&gt;&lt;p style=&quot;margin: 0px ; margin-left: 4px&quot;&gt;type&lt;/p&gt;&lt;hr size=&quot;1&quot;&gt;&lt;p style=&quot;margin: 0px ; margin-left: 4px&quot;&gt;expand()&lt;/p&gt;" style="verticalAlign=middle;align=center;overflow=fill;fontSize=12;fontFamily=Helvetica;html=1;fontColor=#262626;labelBorderColor=none;strokeColor=#191919;fillColor=none;" parent="1" vertex="1">
                    <mxGeometry x="684" y="1762" width="160" height="90" as="geometry"/>
                </mxCell>
                <mxCell id="12" value="&lt;p style=&quot;margin: 0px ; margin-top: 4px ; text-align: center&quot;&gt;&lt;b&gt;UserListItem&lt;/b&gt;&lt;/p&gt;&lt;hr size=&quot;1&quot;&gt;&lt;p style=&quot;margin: 0px ; margin-left: 4px&quot;&gt;key&lt;/p&gt;&lt;p style=&quot;margin: 0px ; margin-left: 4px&quot;&gt;type&lt;/p&gt;&lt;hr size=&quot;1&quot;&gt;&lt;p style=&quot;margin: 0px ; margin-left: 4px&quot;&gt;check()&lt;/p&gt;" style="verticalAlign=middle;align=center;overflow=fill;fontSize=12;fontFamily=Helvetica;html=1;fontColor=#262626;labelBorderColor=none;strokeColor=#191919;fillColor=none;" parent="1" vertex="1">
                    <mxGeometry x="864" y="1762" width="160" height="90" as="geometry"/>
                </mxCell>
                <mxCell id="13" value="&lt;p style=&quot;margin: 0px ; margin-top: 4px ; text-align: center&quot;&gt;&lt;b&gt;ListItem&lt;/b&gt;&lt;/p&gt;&lt;hr size=&quot;1&quot;&gt;&lt;p style=&quot;margin: 0px ; margin-left: 4px&quot;&gt;&lt;/p&gt;&lt;b style=&quot;text-align: center&quot;&gt;-&lt;/b&gt;&lt;b style=&quot;text-align: center&quot;&gt;RenderListStrategy&lt;/b&gt;&lt;hr size=&quot;1&quot;&gt;&lt;p style=&quot;margin: 0px 0px 0px 4px&quot;&gt;&lt;br&gt;&lt;/p&gt;&lt;p style=&quot;margin: 0px ; margin-left: 4px&quot;&gt;&lt;br&gt;&lt;/p&gt;" style="verticalAlign=middle;align=center;overflow=fill;fontSize=12;fontFamily=Helvetica;html=1;fontColor=#262626;labelBorderColor=none;strokeColor=#191919;fillColor=none;" parent="1" vertex="1">
                    <mxGeometry x="604" y="1902" width="120" height="80" as="geometry"/>
                </mxCell>
                <mxCell id="14" value="«interface»&lt;br&gt;&lt;b&gt;RenderListStrategy&lt;/b&gt;" style="html=1;fontColor=#262626;labelBorderColor=none;strokeColor=#191919;fillColor=none;" parent="1" vertex="1">
                    <mxGeometry x="794" y="1917" width="120" height="50" as="geometry"/>
                </mxCell>
                <mxCell id="15" value="&lt;p style=&quot;margin: 0px ; margin-top: 4px ; text-align: center&quot;&gt;&lt;b&gt;AvatarDido&lt;/b&gt;&lt;/p&gt;&lt;hr size=&quot;1&quot;&gt;&lt;div style=&quot;height: 2px&quot;&gt;&lt;/div&gt;" style="verticalAlign=middle;align=center;overflow=fill;fontSize=12;fontFamily=Helvetica;html=1;fontColor=#262626;labelBorderColor=none;strokeColor=#191919;fillColor=none;" parent="1" vertex="1">
                    <mxGeometry x="494" y="2022" width="140" height="60" as="geometry"/>
                </mxCell>
                <mxCell id="17" value="&lt;p style=&quot;margin: 0px ; margin-top: 4px ; text-align: center&quot;&gt;&lt;b&gt;NormalListItem&lt;/b&gt;&lt;/p&gt;&lt;hr size=&quot;1&quot;&gt;&lt;p style=&quot;margin: 0px ; margin-left: 4px&quot;&gt;&lt;/p&gt;&lt;p style=&quot;margin: 0px ; margin-left: 4px&quot;&gt;renderLabel()&lt;/p&gt;&lt;p style=&quot;margin: 0px ; margin-left: 4px&quot;&gt;rendreExtra()&lt;/p&gt;&lt;p style=&quot;margin: 0px ; margin-left: 4px&quot;&gt;onClick()&lt;/p&gt;" style="verticalAlign=middle;align=center;overflow=fill;fontSize=12;fontFamily=Helvetica;html=1;fontColor=#262626;labelBorderColor=none;strokeColor=#191919;fillColor=none;" vertex="1" parent="1">
                    <mxGeometry x="664" y="2010" width="160" height="80" as="geometry"/>
                </mxCell>
                <mxCell id="19" value="&lt;p style=&quot;margin: 0px ; margin-top: 4px ; text-align: center&quot;&gt;&lt;b&gt;RencentList&lt;/b&gt;&lt;/p&gt;&lt;hr size=&quot;1&quot;&gt;&lt;div style=&quot;height: 2px&quot;&gt;&lt;/div&gt;" style="verticalAlign=middle;align=center;overflow=fill;fontSize=12;fontFamily=Helvetica;html=1;fontColor=#262626;labelBorderColor=none;strokeColor=#191919;fillColor=none;" vertex="1" parent="1">
                    <mxGeometry x="874" y="1482" width="140" height="60" as="geometry"/>
                </mxCell>
                <mxCell id="21" value="&lt;p style=&quot;margin: 0px ; margin-top: 4px ; text-align: center&quot;&gt;&lt;b&gt;CheckBoxGroupList&lt;/b&gt;&lt;/p&gt;&lt;hr size=&quot;1&quot;&gt;&lt;div style=&quot;height: 2px&quot;&gt;&lt;/div&gt;" style="verticalAlign=middle;align=center;overflow=fill;fontSize=12;fontFamily=Helvetica;html=1;fontColor=#262626;labelBorderColor=none;strokeColor=#191919;fillColor=none;" vertex="1" parent="1">
                    <mxGeometry x="874" y="1612" width="140" height="60" as="geometry"/>
                </mxCell>
                <mxCell id="23" value="&lt;p style=&quot;margin: 0px ; margin-top: 4px ; text-align: center&quot;&gt;&lt;b&gt;SearchIput&lt;/b&gt;&lt;/p&gt;&lt;hr size=&quot;1&quot;&gt;keyword&lt;br&gt;autoFocus&lt;br&gt;&lt;div style=&quot;height: 2px&quot;&gt;&lt;/div&gt;&lt;hr size=&quot;1&quot;&gt;&lt;div style=&quot;height: 2px&quot;&gt;handleChange()&lt;/div&gt;" style="verticalAlign=middle;align=center;overflow=fill;fontSize=12;fontFamily=Helvetica;html=1;fontColor=#262626;labelBorderColor=none;strokeColor=#191919;fillColor=none;" vertex="1" parent="1">
                    <mxGeometry x="1244" y="1462" width="140" height="100" as="geometry"/>
                </mxCell>
                <mxCell id="24" value="&lt;p style=&quot;margin: 0px ; margin-top: 4px ; text-align: center&quot;&gt;&lt;b&gt;SelectedList&lt;/b&gt;&lt;/p&gt;&lt;hr size=&quot;1&quot;&gt;&lt;div style=&quot;height: 2px&quot;&gt;&lt;/div&gt;" style="verticalAlign=middle;align=center;overflow=fill;fontSize=12;fontFamily=Helvetica;html=1;fontColor=#262626;labelBorderColor=none;strokeColor=#191919;fillColor=none;" vertex="1" parent="1">
                    <mxGeometry x="1414" y="1472" width="140" height="60" as="geometry"/>
                </mxCell>
                <mxCell id="26" value="&lt;p style=&quot;margin: 0px ; margin-top: 4px ; text-align: center&quot;&gt;&lt;b&gt;VirtualLizedList&lt;/b&gt;&lt;/p&gt;&lt;hr size=&quot;1&quot;&gt;&lt;div style=&quot;height: 2px&quot;&gt;&lt;/div&gt;" style="verticalAlign=middle;align=center;overflow=fill;fontSize=12;fontFamily=Helvetica;html=1;fontColor=#262626;labelBorderColor=none;strokeColor=#191919;fillColor=none;" vertex="1" parent="1">
                    <mxGeometry x="1104" y="1762" width="140" height="60" as="geometry"/>
                </mxCell>
                <mxCell id="89" value="" style="edgeStyle=none;html=1;fontColor=#262626;labelBorderColor=none;" edge="1" parent="1" source="28" target="23">
                    <mxGeometry relative="1" as="geometry"/>
                </mxCell>
                <mxCell id="28" value="&lt;p style=&quot;margin: 0px ; margin-top: 4px ; text-align: center&quot;&gt;&lt;b&gt;CollapseContainer&lt;/b&gt;&lt;/p&gt;&lt;hr size=&quot;1&quot;&gt;activeKey&lt;br&gt;&lt;div style=&quot;height: 2px&quot;&gt;&lt;/div&gt;&lt;hr size=&quot;1&quot;&gt;&lt;div style=&quot;height: 2px&quot;&gt;changeActive()&lt;/div&gt;" style="verticalAlign=middle;align=center;overflow=fill;fontSize=12;fontFamily=Helvetica;html=1;fontColor=#262626;labelBorderColor=none;strokeColor=#191919;fillColor=none;" vertex="1" parent="1">
                    <mxGeometry x="1034" y="1467" width="140" height="90" as="geometry"/>
                </mxCell>
                <mxCell id="34" value="&lt;p style=&quot;margin: 0px ; margin-top: 4px ; text-align: center&quot;&gt;&lt;b&gt;InvitationMpdal&lt;/b&gt;&lt;/p&gt;&lt;hr size=&quot;1&quot;&gt;&lt;p style=&quot;margin: 0px ; margin-left: 4px&quot;&gt;selecetd&lt;/p&gt;&lt;p style=&quot;margin: 0px ; margin-left: 4px&quot;&gt;disabled&lt;/p&gt;&lt;p style=&quot;margin: 0px ; margin-left: 4px&quot;&gt;visible&lt;/p&gt;&lt;hr size=&quot;1&quot;&gt;&lt;p style=&quot;margin: 0px ; margin-left: 4px&quot;&gt;handleConfirm()&lt;/p&gt;&lt;p style=&quot;margin: 0px ; margin-left: 4px&quot;&gt;handleCancel()&lt;/p&gt;&lt;p style=&quot;margin: 0px ; margin-left: 4px&quot;&gt;updateRencent()&lt;/p&gt;" style="verticalAlign=middle;align=center;overflow=fill;fontSize=12;fontFamily=Helvetica;html=1;fontColor=#262626;labelBorderColor=none;strokeColor=#191919;fillColor=none;" vertex="1" parent="1">
                    <mxGeometry x="1024" y="1127" width="160" height="140" as="geometry"/>
                </mxCell>
                <mxCell id="39" value="&lt;p style=&quot;margin: 0px ; margin-top: 4px ; text-align: center&quot;&gt;&lt;b&gt;AwakeFuncHoc&lt;/b&gt;&lt;/p&gt;&lt;hr size=&quot;1&quot;&gt;&lt;div style=&quot;height: 2px&quot;&gt;&lt;/div&gt;" style="verticalAlign=middle;align=center;overflow=fill;fontSize=12;fontFamily=Helvetica;html=1;fontColor=#262626;labelBorderColor=none;strokeColor=#191919;fillColor=none;" vertex="1" parent="1">
                    <mxGeometry x="824" y="1142" width="140" height="60" as="geometry"/>
                </mxCell>
                <mxCell id="40" value="«interface»&lt;br&gt;&lt;b&gt;awakeInvitation&lt;/b&gt;" style="html=1;fontColor=#262626;labelBorderColor=none;strokeColor=#191919;fillColor=none;" vertex="1" parent="1">
                    <mxGeometry x="949" y="1022" width="110" height="50" as="geometry"/>
                </mxCell>
                <mxCell id="41" value="&lt;p style=&quot;margin: 0px ; margin-top: 4px ; text-align: center&quot;&gt;&lt;b&gt;QuickInvitation&lt;/b&gt;&lt;/p&gt;&lt;hr size=&quot;1&quot;&gt;&lt;p style=&quot;margin: 0px ; margin-left: 4px&quot;&gt;selecetd&lt;/p&gt;&lt;p style=&quot;margin: 0px ; margin-left: 4px&quot;&gt;disabled&lt;/p&gt;&lt;p style=&quot;margin: 0px ; margin-left: 4px&quot;&gt;popoverVisible&lt;/p&gt;&lt;hr size=&quot;1&quot;&gt;&lt;p style=&quot;margin: 0px ; margin-left: 4px&quot;&gt;&lt;span&gt;handlePopoverChange()&lt;/span&gt;&lt;br&gt;&lt;/p&gt;&lt;p style=&quot;margin: 0px ; margin-left: 4px&quot;&gt;&lt;span&gt;onClick()&lt;/span&gt;&lt;/p&gt;" style="verticalAlign=middle;align=center;overflow=fill;fontSize=12;fontFamily=Helvetica;html=1;fontColor=#262626;labelBorderColor=none;strokeColor=#191919;fillColor=none;" vertex="1" parent="1">
                    <mxGeometry x="1234" y="1017" width="160" height="125" as="geometry"/>
                </mxCell>
                <mxCell id="42" value="&lt;p style=&quot;margin: 0px ; margin-top: 4px ; text-align: center&quot;&gt;&lt;b&gt;SearchList&lt;/b&gt;&lt;/p&gt;&lt;hr size=&quot;1&quot;&gt;&lt;p style=&quot;margin: 0px ; margin-left: 4px&quot;&gt;&lt;/p&gt;&lt;p style=&quot;margin: 0px ; margin-left: 4px&quot;&gt;&lt;br&gt;&lt;/p&gt;" style="verticalAlign=middle;align=center;overflow=fill;fontSize=12;fontFamily=Helvetica;html=1;fontColor=#262626;labelBorderColor=none;strokeColor=#191919;fillColor=none;" vertex="1" parent="1">
                    <mxGeometry x="1584" y="1470" width="160" height="65" as="geometry"/>
                </mxCell>
                <mxCell id="43" value="&lt;p style=&quot;margin: 0px ; margin-top: 4px ; text-align: center&quot;&gt;&lt;b style=&quot;&quot;&gt;CommonAdapter&lt;/b&gt;&lt;/p&gt;&lt;hr size=&quot;1&quot;&gt;&lt;div style=&quot;height: 2px&quot;&gt;&lt;/div&gt;" style="verticalAlign=middle;align=center;overflow=fill;fontSize=12;fontFamily=Helvetica;html=1;labelBorderColor=none;fontColor=#262626;strokeColor=#191919;fillColor=none;" vertex="1" parent="1">
                    <mxGeometry x="1034" y="812" width="140" height="60" as="geometry"/>
                </mxCell>
                <mxCell id="45" value="" style="endArrow=open;endSize=12;dashed=1;html=1;exitX=0.5;exitY=0;exitDx=0;exitDy=0;entryX=0.5;entryY=1;entryDx=0;entryDy=0;fontColor=#262626;labelBorderColor=none;strokeColor=#080808;" edge="1" parent="1" source="43" target="3">
                    <mxGeometry width="160" relative="1" as="geometry">
                        <mxPoint x="1104" y="792" as="sourcePoint"/>
                        <mxPoint x="1264" y="792" as="targetPoint"/>
                    </mxGeometry>
                </mxCell>
                <mxCell id="46" value="&lt;p style=&quot;margin: 0px ; margin-top: 4px ; text-align: center&quot;&gt;&lt;b&gt;DepartentAdapter&lt;/b&gt;&lt;/p&gt;&lt;hr size=&quot;1&quot;&gt;&lt;div style=&quot;height: 2px&quot;&gt;&lt;/div&gt;" style="verticalAlign=middle;align=center;overflow=fill;fontSize=12;fontFamily=Helvetica;html=1;fontColor=#262626;labelBorderColor=none;strokeColor=#191919;fillColor=none;" vertex="1" parent="1">
                    <mxGeometry x="804" y="812" width="140" height="60" as="geometry"/>
                </mxCell>
                <mxCell id="47" value="&lt;p style=&quot;margin: 0px ; margin-top: 4px ; text-align: center&quot;&gt;&lt;b&gt;DepartMentUserAdapter&lt;/b&gt;&lt;/p&gt;&lt;hr size=&quot;1&quot;&gt;&lt;div style=&quot;height: 2px&quot;&gt;&lt;/div&gt;" style="verticalAlign=middle;align=center;overflow=fill;fontSize=12;fontFamily=Helvetica;html=1;fontColor=#262626;labelBorderColor=none;strokeColor=#191919;fillColor=none;" vertex="1" parent="1">
                    <mxGeometry x="609" y="812" width="150" height="60" as="geometry"/>
                </mxCell>
                <mxCell id="49" value="" style="endArrow=diamondThin;endFill=0;endSize=24;html=1;exitX=1;exitY=0.5;exitDx=0;exitDy=0;entryX=0;entryY=0.5;entryDx=0;entryDy=0;fontColor=#262626;labelBorderColor=none;strokeColor=#000000;" edge="1" parent="1" source="47" target="46">
                    <mxGeometry width="160" relative="1" as="geometry">
                        <mxPoint x="904" y="1012" as="sourcePoint"/>
                        <mxPoint x="1064" y="1012" as="targetPoint"/>
                    </mxGeometry>
                </mxCell>
                <mxCell id="50" value="" style="endArrow=open;endSize=12;dashed=1;html=1;exitX=0.5;exitY=0;exitDx=0;exitDy=0;entryX=0;entryY=0.5;entryDx=0;entryDy=0;fontColor=#262626;labelBorderColor=none;strokeColor=#080808;" edge="1" parent="1" source="46" target="3">
                    <mxGeometry width="160" relative="1" as="geometry">
                        <mxPoint x="904" y="1002" as="sourcePoint"/>
                        <mxPoint x="1064" y="1002" as="targetPoint"/>
                        <Array as="points">
                            <mxPoint x="874" y="737"/>
                        </Array>
                    </mxGeometry>
                </mxCell>
                <mxCell id="51" value="«interface»&lt;br&gt;&lt;b&gt;TreeData&lt;/b&gt;" style="html=1;fontColor=#262626;labelBorderColor=none;strokeColor=#191919;fillColor=none;" vertex="1" parent="1">
                    <mxGeometry x="819" y="932" width="110" height="50" as="geometry"/>
                </mxCell>
                <mxCell id="52" value="«interface»&lt;br&gt;&lt;b&gt;CommonData&lt;/b&gt;" style="html=1;fontColor=#262626;labelBorderColor=none;strokeColor=#191919;fillColor=none;" vertex="1" parent="1">
                    <mxGeometry x="1049" y="932" width="110" height="50" as="geometry"/>
                </mxCell>
                <mxCell id="54" value="" style="endArrow=block;dashed=1;endFill=0;endSize=12;html=1;entryX=0.5;entryY=0;entryDx=0;entryDy=0;exitX=0.5;exitY=1;exitDx=0;exitDy=0;fontColor=#262626;labelBorderColor=none;strokeColor=#000000;" edge="1" parent="1" source="46" target="51">
                    <mxGeometry width="160" relative="1" as="geometry">
                        <mxPoint x="924" y="1072" as="sourcePoint"/>
                        <mxPoint x="1084" y="1072" as="targetPoint"/>
                    </mxGeometry>
                </mxCell>
                <mxCell id="55" value="" style="endArrow=block;dashed=1;endFill=0;endSize=12;html=1;entryX=0.5;entryY=0;entryDx=0;entryDy=0;exitX=0.5;exitY=1;exitDx=0;exitDy=0;fontColor=#262626;labelBorderColor=none;strokeColor=#000000;" edge="1" parent="1" source="43" target="52">
                    <mxGeometry width="160" relative="1" as="geometry">
                        <mxPoint x="924" y="1072" as="sourcePoint"/>
                        <mxPoint x="1084" y="1072" as="targetPoint"/>
                    </mxGeometry>
                </mxCell>
                <mxCell id="56" value="" style="endArrow=open;endSize=12;dashed=1;html=1;exitX=0.5;exitY=0;exitDx=0;exitDy=0;entryX=1;entryY=0.5;entryDx=0;entryDy=0;fontColor=#262626;labelBorderColor=none;strokeColor=#000000;" edge="1" parent="1" source="41" target="52">
                    <mxGeometry width="160" relative="1" as="geometry">
                        <mxPoint x="924" y="1072" as="sourcePoint"/>
                        <mxPoint x="1084" y="1072" as="targetPoint"/>
                        <Array as="points">
                            <mxPoint x="1314" y="957"/>
                        </Array>
                    </mxGeometry>
                </mxCell>
                <mxCell id="61" value="" style="endArrow=open;endSize=12;dashed=1;html=1;exitX=0.5;exitY=0;exitDx=0;exitDy=0;entryX=0;entryY=0.5;entryDx=0;entryDy=0;fontColor=#262626;labelBorderColor=none;strokeColor=#000000;" edge="1" parent="1" source="9" target="51">
                    <mxGeometry width="160" relative="1" as="geometry">
                        <mxPoint x="704" y="1272" as="sourcePoint"/>
                        <mxPoint x="864" y="1272" as="targetPoint"/>
                        <Array as="points">
                            <mxPoint x="764" y="957"/>
                        </Array>
                    </mxGeometry>
                </mxCell>
                <mxCell id="62" value="" style="endArrow=open;endSize=12;dashed=1;html=1;exitX=0.5;exitY=0;exitDx=0;exitDy=0;entryX=0.5;entryY=1;entryDx=0;entryDy=0;fontColor=#262626;labelBorderColor=none;strokeColor=#000000;" edge="1" parent="1" source="34" target="52">
                    <mxGeometry width="160" relative="1" as="geometry">
                        <mxPoint x="1304" y="1212" as="sourcePoint"/>
                        <mxPoint x="1464" y="1212" as="targetPoint"/>
                    </mxGeometry>
                </mxCell>
                <mxCell id="63" value="" style="endArrow=open;endSize=12;dashed=1;html=1;exitX=0.5;exitY=0;exitDx=0;exitDy=0;entryX=1;entryY=0.5;entryDx=0;entryDy=0;fontColor=#262626;labelBorderColor=none;strokeColor=#000000;" edge="1" parent="1" source="42" target="52">
                    <mxGeometry width="160" relative="1" as="geometry">
                        <mxPoint x="1524" y="1132" as="sourcePoint"/>
                        <mxPoint x="1154" y="952" as="targetPoint"/>
                        <Array as="points">
                            <mxPoint x="1664" y="952"/>
                        </Array>
                    </mxGeometry>
                </mxCell>
                <mxCell id="65" value="" style="endArrow=diamondThin;endFill=0;endSize=24;html=1;exitX=0.5;exitY=0;exitDx=0;exitDy=0;entryX=0;entryY=0.75;entryDx=0;entryDy=0;fontColor=#262626;labelBorderColor=none;strokeColor=#000000;" edge="1" parent="1" source="9" target="34">
                    <mxGeometry width="160" relative="1" as="geometry">
                        <mxPoint x="783.9999999999995" y="1301.9999999999998" as="sourcePoint"/>
                        <mxPoint x="943.9999999999995" y="1301.9999999999998" as="targetPoint"/>
                        <Array as="points">
                            <mxPoint x="764" y="1232"/>
                        </Array>
                    </mxGeometry>
                </mxCell>
                <mxCell id="66" value="" style="endArrow=diamondThin;endFill=0;endSize=24;html=1;exitX=0.5;exitY=0;exitDx=0;exitDy=0;entryX=0.5;entryY=1;entryDx=0;entryDy=0;fontColor=#262626;labelBorderColor=none;strokeColor=#000000;" edge="1" parent="1" source="19" target="34">
                    <mxGeometry width="160" relative="1" as="geometry">
                        <mxPoint x="934" y="1322" as="sourcePoint"/>
                        <mxPoint x="1094" y="1322" as="targetPoint"/>
                    </mxGeometry>
                </mxCell>
                <mxCell id="68" value="" style="endArrow=diamondThin;endFill=0;endSize=24;html=1;entryX=0.5;entryY=1;entryDx=0;entryDy=0;exitX=0.5;exitY=0;exitDx=0;exitDy=0;fontColor=#262626;labelBorderColor=none;strokeColor=#000000;" edge="1" parent="1" source="28" target="34">
                    <mxGeometry width="160" relative="1" as="geometry">
                        <mxPoint x="1174" y="1262" as="sourcePoint"/>
                        <mxPoint x="1334" y="1262" as="targetPoint"/>
                    </mxGeometry>
                </mxCell>
                <mxCell id="69" value="" style="endArrow=diamondThin;endFill=0;endSize=24;html=1;exitX=0.5;exitY=0;exitDx=0;exitDy=0;entryX=0.5;entryY=1;entryDx=0;entryDy=0;fontColor=#262626;labelBorderColor=none;strokeColor=#000000;" edge="1" parent="1" source="23" target="34">
                    <mxGeometry width="160" relative="1" as="geometry">
                        <mxPoint x="1174" y="1262" as="sourcePoint"/>
                        <mxPoint x="1334" y="1262" as="targetPoint"/>
                    </mxGeometry>
                </mxCell>
                <mxCell id="70" value="" style="endArrow=diamondThin;endFill=0;endSize=24;html=1;exitX=0.5;exitY=0;exitDx=0;exitDy=0;entryX=0.5;entryY=1;entryDx=0;entryDy=0;fontColor=#262626;labelBorderColor=none;" edge="1" parent="1" source="24" target="34">
                    <mxGeometry width="160" relative="1" as="geometry">
                        <mxPoint x="1174" y="1262" as="sourcePoint"/>
                        <mxPoint x="1334" y="1262" as="targetPoint"/>
                    </mxGeometry>
                </mxCell>
                <mxCell id="71" value="" style="endArrow=diamondThin;endFill=0;endSize=24;html=1;exitX=0.5;exitY=0;exitDx=0;exitDy=0;entryX=0.5;entryY=1;entryDx=0;entryDy=0;fontColor=#262626;labelBorderColor=none;strokeColor=#000000;" edge="1" parent="1" source="23" target="41">
                    <mxGeometry width="160" relative="1" as="geometry">
                        <mxPoint x="1373.9999999999995" y="1201.9999999999998" as="sourcePoint"/>
                        <mxPoint x="1533.9999999999995" y="1201.9999999999998" as="targetPoint"/>
                    </mxGeometry>
                </mxCell>
                <mxCell id="72" value="" style="endArrow=diamondThin;endFill=0;endSize=24;html=1;exitX=0.5;exitY=0;exitDx=0;exitDy=0;entryX=0.5;entryY=1;entryDx=0;entryDy=0;fontColor=#262626;labelBorderColor=none;strokeColor=#000000;" edge="1" parent="1" source="24" target="34">
                    <mxGeometry width="160" relative="1" as="geometry">
                        <mxPoint x="1174" y="1262" as="sourcePoint"/>
                        <mxPoint x="1334" y="1262" as="targetPoint"/>
                    </mxGeometry>
                </mxCell>
                <mxCell id="73" value="" style="endArrow=diamondThin;endFill=0;endSize=24;html=1;exitX=0.5;exitY=0;exitDx=0;exitDy=0;entryX=0.5;entryY=1;entryDx=0;entryDy=0;fontColor=#262626;labelBorderColor=none;strokeColor=#000000;" edge="1" parent="1" source="42" target="34">
                    <mxGeometry width="160" relative="1" as="geometry">
                        <mxPoint x="1494" y="1222" as="sourcePoint"/>
                        <mxPoint x="1654" y="1222" as="targetPoint"/>
                    </mxGeometry>
                </mxCell>
                <mxCell id="74" value="" style="endArrow=diamondThin;endFill=0;endSize=24;html=1;exitX=0.5;exitY=0;exitDx=0;exitDy=0;entryX=0.5;entryY=1;entryDx=0;entryDy=0;fontColor=#262626;labelBorderColor=none;strokeColor=#000000;" edge="1" parent="1" source="19" target="41">
                    <mxGeometry width="160" relative="1" as="geometry">
                        <mxPoint x="1324" y="1660.57" as="sourcePoint"/>
                        <mxPoint x="1484" y="1660.57" as="targetPoint"/>
                    </mxGeometry>
                </mxCell>
                <mxCell id="75" value="" style="endArrow=diamondThin;endFill=0;endSize=24;html=1;exitX=0.5;exitY=0;exitDx=0;exitDy=0;entryX=0.5;entryY=1;entryDx=0;entryDy=0;fontColor=#262626;labelBorderColor=none;strokeColor=#000000;" edge="1" parent="1" source="42" target="41">
                    <mxGeometry width="160" relative="1" as="geometry">
                        <mxPoint x="1234" y="1412" as="sourcePoint"/>
                        <mxPoint x="1394" y="1412" as="targetPoint"/>
                    </mxGeometry>
                </mxCell>
                <mxCell id="78" value="" style="endArrow=open;html=1;endSize=12;startArrow=diamondThin;startSize=14;startFill=0;edgeStyle=orthogonalEdgeStyle;align=left;verticalAlign=bottom;entryX=0;entryY=0.5;entryDx=0;entryDy=0;exitX=0;exitY=0.5;exitDx=0;exitDy=0;fontColor=#262626;labelBorderColor=none;strokeColor=#383838;" edge="1" parent="1" source="39" target="40">
                    <mxGeometry x="-1" y="3" relative="1" as="geometry">
                        <mxPoint x="784" y="1047" as="sourcePoint"/>
                        <mxPoint x="944" y="1052" as="targetPoint"/>
                        <Array as="points">
                            <mxPoint x="794" y="1172"/>
                            <mxPoint x="794" y="1047"/>
                        </Array>
                    </mxGeometry>
                </mxCell>
                <mxCell id="79" value="" style="endArrow=block;dashed=1;endFill=0;endSize=12;html=1;exitX=0.5;exitY=0;exitDx=0;exitDy=0;entryX=0.5;entryY=1;entryDx=0;entryDy=0;fontColor=#262626;labelBorderColor=none;strokeColor=#000000;" edge="1" parent="1" source="39" target="40">
                    <mxGeometry width="160" relative="1" as="geometry">
                        <mxPoint x="1114" y="1152" as="sourcePoint"/>
                        <mxPoint x="1274" y="1152" as="targetPoint"/>
                        <Array as="points">
                            <mxPoint x="894" y="1102"/>
                            <mxPoint x="1004" y="1102"/>
                        </Array>
                    </mxGeometry>
                </mxCell>
                <mxCell id="80" value="" style="endArrow=block;dashed=1;endFill=0;endSize=12;html=1;exitX=0.5;exitY=0;exitDx=0;exitDy=0;entryX=0.5;entryY=1;entryDx=0;entryDy=0;fontColor=#262626;labelBorderColor=none;strokeColor=#000000;" edge="1" parent="1" source="34" target="40">
                    <mxGeometry width="160" relative="1" as="geometry">
                        <mxPoint x="1114" y="1152" as="sourcePoint"/>
                        <mxPoint x="1274" y="1152" as="targetPoint"/>
                        <Array as="points">
                            <mxPoint x="1104" y="1102"/>
                            <mxPoint x="1004" y="1102"/>
                        </Array>
                    </mxGeometry>
                </mxCell>
                <mxCell id="81" value="" style="endArrow=open;endSize=12;dashed=1;html=1;exitX=0;exitY=0.25;exitDx=0;exitDy=0;entryX=1;entryY=0.5;entryDx=0;entryDy=0;fontColor=#262626;labelBorderColor=none;strokeColor=#000000;" edge="1" parent="1" source="41" target="40">
                    <mxGeometry width="160" relative="1" as="geometry">
                        <mxPoint x="1114" y="1152" as="sourcePoint"/>
                        <mxPoint x="1274" y="1152" as="targetPoint"/>
                    </mxGeometry>
                </mxCell>
                <mxCell id="82" value="" style="endArrow=diamondThin;endFill=0;endSize=24;html=1;entryX=0.5;entryY=1;entryDx=0;entryDy=0;exitX=0.5;exitY=0;exitDx=0;exitDy=0;fontColor=#262626;labelBorderColor=none;strokeColor=#000000;" edge="1" parent="1" source="21" target="19">
                    <mxGeometry width="160" relative="1" as="geometry">
                        <mxPoint x="1004" y="1752" as="sourcePoint"/>
                        <mxPoint x="1164" y="1752" as="targetPoint"/>
                    </mxGeometry>
                </mxCell>
                <mxCell id="84" value="" style="endArrow=diamondThin;endFill=0;endSize=24;html=1;entryX=0.5;entryY=1;entryDx=0;entryDy=0;exitX=0.5;exitY=0;exitDx=0;exitDy=0;fontColor=#262626;labelBorderColor=none;strokeColor=#000000;" edge="1" parent="1" source="12" target="21">
                    <mxGeometry width="160" relative="1" as="geometry">
                        <mxPoint x="1044" y="1792" as="sourcePoint"/>
                        <mxPoint x="1204" y="1792" as="targetPoint"/>
                    </mxGeometry>
                </mxCell>
                <mxCell id="85" value="" style="endArrow=diamondThin;endFill=0;endSize=24;html=1;exitX=0.5;exitY=0;exitDx=0;exitDy=0;entryX=0.5;entryY=1;entryDx=0;entryDy=0;fontColor=#262626;labelBorderColor=none;strokeColor=#000000;" edge="1" parent="1" source="26" target="21">
                    <mxGeometry width="160" relative="1" as="geometry">
                        <mxPoint x="1044" y="1792" as="sourcePoint"/>
                        <mxPoint x="1204" y="1792" as="targetPoint"/>
                        <Array as="points">
                            <mxPoint x="1174" y="1722"/>
                            <mxPoint x="944" y="1722"/>
                        </Array>
                    </mxGeometry>
                </mxCell>
                <mxCell id="86" value="" style="endArrow=diamondThin;endFill=0;endSize=24;html=1;exitX=1;exitY=0.5;exitDx=0;exitDy=0;entryX=0.5;entryY=1;entryDx=0;entryDy=0;fontColor=#262626;labelBorderColor=none;strokeColor=#000000;" edge="1" parent="1" source="21" target="42">
                    <mxGeometry width="160" relative="1" as="geometry">
                        <mxPoint x="1044" y="1672" as="sourcePoint"/>
                        <mxPoint x="1204" y="1672" as="targetPoint"/>
                        <Array as="points">
                            <mxPoint x="1664" y="1642"/>
                        </Array>
                    </mxGeometry>
                </mxCell>
                <mxCell id="87" value="" style="endArrow=diamondThin;endFill=0;endSize=24;html=1;exitX=0.5;exitY=0;exitDx=0;exitDy=0;entryX=0.5;entryY=1;entryDx=0;entryDy=0;fontColor=#262626;labelBorderColor=none;strokeColor=#000000;" edge="1" parent="1" source="12" target="24">
                    <mxGeometry width="160" relative="1" as="geometry">
                        <mxPoint x="1044" y="1672" as="sourcePoint"/>
                        <mxPoint x="1474" y="1632" as="targetPoint"/>
                        <Array as="points">
                            <mxPoint x="944" y="1722"/>
                            <mxPoint x="1484" y="1722"/>
                        </Array>
                    </mxGeometry>
                </mxCell>
                <mxCell id="90" value="" style="endArrow=diamondThin;endFill=0;endSize=24;html=1;exitX=1;exitY=0.5;exitDx=0;exitDy=0;entryX=0.5;entryY=1;entryDx=0;entryDy=0;fontColor=#262626;labelBorderColor=none;strokeColor=#000000;" edge="1" parent="1" source="26" target="24">
                    <mxGeometry width="160" relative="1" as="geometry">
                        <mxPoint x="964" y="1572" as="sourcePoint"/>
                        <mxPoint x="1124" y="1572" as="targetPoint"/>
                        <Array as="points">
                            <mxPoint x="1484" y="1792"/>
                        </Array>
                    </mxGeometry>
                </mxCell>
                <mxCell id="91" value="" style="endArrow=block;dashed=1;endFill=0;endSize=12;html=1;exitX=0.5;exitY=0;exitDx=0;exitDy=0;entryX=0.5;entryY=1;entryDx=0;entryDy=0;fontColor=#262626;labelBorderColor=none;strokeColor=#000000;" edge="1" parent="1" source="14" target="12">
                    <mxGeometry width="160" relative="1" as="geometry">
                        <mxPoint x="974" y="1882" as="sourcePoint"/>
                        <mxPoint x="1134" y="1882" as="targetPoint"/>
                        <Array as="points">
                            <mxPoint x="854" y="1902"/>
                            <mxPoint x="944" y="1902"/>
                        </Array>
                    </mxGeometry>
                </mxCell>
                <mxCell id="92" value="" style="endArrow=block;dashed=1;endFill=0;endSize=12;html=1;exitX=0.5;exitY=0;exitDx=0;exitDy=0;entryX=0.5;entryY=1;entryDx=0;entryDy=0;fontColor=#262626;labelBorderColor=none;strokeColor=#000000;" edge="1" parent="1" source="14" target="11">
                    <mxGeometry width="160" relative="1" as="geometry">
                        <mxPoint x="974" y="1992" as="sourcePoint"/>
                        <mxPoint x="1134" y="1992" as="targetPoint"/>
                        <Array as="points">
                            <mxPoint x="854" y="1902"/>
                            <mxPoint x="764" y="1902"/>
                        </Array>
                    </mxGeometry>
                </mxCell>
                <mxCell id="93" value="" style="endArrow=open;html=1;endSize=12;startArrow=diamondThin;startSize=14;startFill=0;edgeStyle=orthogonalEdgeStyle;align=left;verticalAlign=bottom;exitX=1;exitY=0.5;exitDx=0;exitDy=0;fontColor=#262626;labelBorderColor=none;strokeColor=#000000;" edge="1" parent="1" source="13">
                    <mxGeometry x="-1" y="3" relative="1" as="geometry">
                        <mxPoint x="974" y="1992" as="sourcePoint"/>
                        <mxPoint x="794" y="1942" as="targetPoint"/>
                    </mxGeometry>
                </mxCell>
                <mxCell id="94" value="" style="endArrow=diamondThin;endFill=0;endSize=24;html=1;entryX=0.5;entryY=1;entryDx=0;entryDy=0;exitX=0.5;exitY=0;exitDx=0;exitDy=0;fontColor=#262626;labelBorderColor=none;strokeColor=#000000;" edge="1" parent="1" source="15" target="13">
                    <mxGeometry width="160" relative="1" as="geometry">
                        <mxPoint x="794" y="1922" as="sourcePoint"/>
                        <mxPoint x="954" y="1922" as="targetPoint"/>
                    </mxGeometry>
                </mxCell>
                <mxCell id="95" value="" style="endArrow=diamondThin;endFill=0;endSize=24;html=1;exitX=0.5;exitY=0;exitDx=0;exitDy=0;entryX=0.5;entryY=1;entryDx=0;entryDy=0;fontColor=#262626;labelBorderColor=none;strokeColor=#000000;" edge="1" parent="1" target="13">
                    <mxGeometry width="160" relative="1" as="geometry">
                        <mxPoint x="743.9999999999995" y="2012" as="sourcePoint"/>
                        <mxPoint x="954" y="1922" as="targetPoint"/>
                    </mxGeometry>
                </mxCell>
                <mxCell id="97" value="&lt;p style=&quot;margin: 0px ; margin-top: 4px ; text-align: center&quot;&gt;&lt;b&gt;ZhOrderAdapter&lt;/b&gt;&lt;/p&gt;&lt;hr size=&quot;1&quot;&gt;&lt;div style=&quot;height: 2px&quot;&gt;&lt;/div&gt;" style="verticalAlign=middle;align=center;overflow=fill;fontSize=12;fontFamily=Helvetica;html=1;fontColor=#262626;labelBorderColor=none;strokeColor=#191919;fillColor=none;" vertex="1" parent="1">
                    <mxGeometry x="408" y="812" width="150" height="60" as="geometry"/>
                </mxCell>
                <mxCell id="99" value="" style="endArrow=diamondThin;endFill=0;endSize=24;html=1;exitX=1;exitY=0.5;exitDx=0;exitDy=0;entryX=0;entryY=0.5;entryDx=0;entryDy=0;fontColor=#262626;labelBorderColor=none;strokeColor=#000000;" edge="1" parent="1" source="97" target="47">
                    <mxGeometry width="160" relative="1" as="geometry">
                        <mxPoint x="501" y="917" as="sourcePoint"/>
                        <mxPoint x="571" y="917" as="targetPoint"/>
                    </mxGeometry>
                </mxCell>
            </root>
        </mxGraphModel>
    </diagram>
</mxfile>
